<mxfile host="app.diagrams.net" agent="Mozilla/5.0 (Windows NT 10.0; Win64; x64) AppleWebKit/537.36 (KHTML, like Gecko) Chrome/131.0.0.0 Safari/537.36" version="26.0.3">
  <diagram id="C5RBs43oDa-KdzZeNtuy" name="Page-1">
    <mxGraphModel dx="989" dy="580" grid="1" gridSize="10" guides="1" tooltips="1" connect="1" arrows="1" fold="1" page="1" pageScale="1" pageWidth="827" pageHeight="1169" math="0" shadow="0">
      <root>
        <mxCell id="WIyWlLk6GJQsqaUBKTNV-0" />
        <mxCell id="WIyWlLk6GJQsqaUBKTNV-1" parent="WIyWlLk6GJQsqaUBKTNV-0" />
        <mxCell id="q6LR0bnagClyTPZN66Ip-3" value="" style="edgeStyle=orthogonalEdgeStyle;rounded=0;orthogonalLoop=1;jettySize=auto;html=1;sketch=1;curveFitting=1;jiggle=2;" edge="1" parent="WIyWlLk6GJQsqaUBKTNV-1" source="q6LR0bnagClyTPZN66Ip-0" target="q6LR0bnagClyTPZN66Ip-2">
          <mxGeometry relative="1" as="geometry" />
        </mxCell>
        <mxCell id="q6LR0bnagClyTPZN66Ip-0" value="用户输入网址到浏览器并访问" style="whiteSpace=wrap;html=1;fontFamily=Comic Sans MS;fillColor=#ffe6cc;strokeColor=#d79b00;rounded=0;glass=0;strokeWidth=1;shadow=0;sketch=1;curveFitting=1;jiggle=2;" vertex="1" parent="WIyWlLk6GJQsqaUBKTNV-1">
          <mxGeometry x="140" y="20" width="120" height="40" as="geometry" />
        </mxCell>
        <mxCell id="q6LR0bnagClyTPZN66Ip-5" value="" style="edgeStyle=orthogonalEdgeStyle;rounded=0;orthogonalLoop=1;jettySize=auto;html=1;sketch=1;curveFitting=1;jiggle=2;" edge="1" parent="WIyWlLk6GJQsqaUBKTNV-1" source="q6LR0bnagClyTPZN66Ip-2" target="q6LR0bnagClyTPZN66Ip-4">
          <mxGeometry relative="1" as="geometry" />
        </mxCell>
        <mxCell id="q6LR0bnagClyTPZN66Ip-2" value="浏览器解析URL，生成HTTP请求报文" style="whiteSpace=wrap;html=1;fontFamily=Comic Sans MS;fillColor=#ffe6cc;strokeColor=#d79b00;rounded=0;glass=0;strokeWidth=1;shadow=0;sketch=1;curveFitting=1;jiggle=2;" vertex="1" parent="WIyWlLk6GJQsqaUBKTNV-1">
          <mxGeometry x="140" y="90" width="120" height="40" as="geometry" />
        </mxCell>
        <mxCell id="q6LR0bnagClyTPZN66Ip-7" value="" style="edgeStyle=orthogonalEdgeStyle;rounded=0;orthogonalLoop=1;jettySize=auto;html=1;sketch=1;curveFitting=1;jiggle=2;flowAnimation=0;" edge="1" parent="WIyWlLk6GJQsqaUBKTNV-1" source="q6LR0bnagClyTPZN66Ip-4" target="q6LR0bnagClyTPZN66Ip-6">
          <mxGeometry relative="1" as="geometry" />
        </mxCell>
        <mxCell id="q6LR0bnagClyTPZN66Ip-4" value="浏览器进行DNS解析" style="whiteSpace=wrap;html=1;fontFamily=Comic Sans MS;fillColor=#ffe6cc;strokeColor=#d79b00;rounded=0;glass=0;strokeWidth=1;shadow=0;sketch=1;curveFitting=1;jiggle=2;" vertex="1" parent="WIyWlLk6GJQsqaUBKTNV-1">
          <mxGeometry x="140" y="160" width="120" height="30" as="geometry" />
        </mxCell>
        <mxCell id="q6LR0bnagClyTPZN66Ip-9" value="" style="edgeStyle=orthogonalEdgeStyle;rounded=0;orthogonalLoop=1;jettySize=auto;html=1;sketch=1;curveFitting=1;jiggle=2;" edge="1" parent="WIyWlLk6GJQsqaUBKTNV-1" source="q6LR0bnagClyTPZN66Ip-6" target="q6LR0bnagClyTPZN66Ip-8">
          <mxGeometry relative="1" as="geometry" />
        </mxCell>
        <mxCell id="q6LR0bnagClyTPZN66Ip-10" value="否" style="edgeLabel;html=1;align=center;verticalAlign=middle;resizable=0;points=[];" vertex="1" connectable="0" parent="q6LR0bnagClyTPZN66Ip-9">
          <mxGeometry x="-0.1448" y="1" relative="1" as="geometry">
            <mxPoint as="offset" />
          </mxGeometry>
        </mxCell>
        <mxCell id="q6LR0bnagClyTPZN66Ip-12" value="" style="edgeStyle=orthogonalEdgeStyle;rounded=0;orthogonalLoop=1;jettySize=auto;html=1;sketch=1;curveFitting=1;jiggle=2;" edge="1" parent="WIyWlLk6GJQsqaUBKTNV-1" source="q6LR0bnagClyTPZN66Ip-6" target="q6LR0bnagClyTPZN66Ip-11">
          <mxGeometry relative="1" as="geometry" />
        </mxCell>
        <mxCell id="q6LR0bnagClyTPZN66Ip-13" value="是" style="edgeLabel;html=1;align=center;verticalAlign=middle;resizable=0;points=[];" vertex="1" connectable="0" parent="q6LR0bnagClyTPZN66Ip-12">
          <mxGeometry x="-0.154" y="3" relative="1" as="geometry">
            <mxPoint as="offset" />
          </mxGeometry>
        </mxCell>
        <mxCell id="q6LR0bnagClyTPZN66Ip-6" value="解析成功？" style="rhombus;whiteSpace=wrap;html=1;fontFamily=Comic Sans MS;fillColor=#ffe6cc;strokeColor=#d79b00;rounded=0;glass=0;strokeWidth=1;shadow=0;sketch=1;curveFitting=1;jiggle=2;" vertex="1" parent="WIyWlLk6GJQsqaUBKTNV-1">
          <mxGeometry x="160" y="230" width="80" height="50" as="geometry" />
        </mxCell>
        <mxCell id="q6LR0bnagClyTPZN66Ip-8" value="结束" style="whiteSpace=wrap;html=1;fontFamily=Comic Sans MS;fillColor=#ffe6cc;strokeColor=#d79b00;rounded=0;glass=0;strokeWidth=1;shadow=0;sketch=1;curveFitting=1;jiggle=2;" vertex="1" parent="WIyWlLk6GJQsqaUBKTNV-1">
          <mxGeometry x="40" y="237.5" width="60" height="35" as="geometry" />
        </mxCell>
        <mxCell id="q6LR0bnagClyTPZN66Ip-15" value="" style="edgeStyle=orthogonalEdgeStyle;rounded=0;orthogonalLoop=1;jettySize=auto;html=1;sketch=1;curveFitting=1;jiggle=2;" edge="1" parent="WIyWlLk6GJQsqaUBKTNV-1" source="q6LR0bnagClyTPZN66Ip-11" target="q6LR0bnagClyTPZN66Ip-14">
          <mxGeometry relative="1" as="geometry" />
        </mxCell>
        <mxCell id="q6LR0bnagClyTPZN66Ip-11" value="请求获取到目标主机IP" style="whiteSpace=wrap;html=1;fontFamily=Comic Sans MS;fillColor=#ffe6cc;strokeColor=#d79b00;rounded=0;glass=0;strokeWidth=1;shadow=0;sketch=1;curveFitting=1;jiggle=2;" vertex="1" parent="WIyWlLk6GJQsqaUBKTNV-1">
          <mxGeometry x="290" y="232.5" width="120" height="40" as="geometry" />
        </mxCell>
        <mxCell id="q6LR0bnagClyTPZN66Ip-17" value="" style="edgeStyle=orthogonalEdgeStyle;rounded=0;orthogonalLoop=1;jettySize=auto;html=1;sketch=1;curveFitting=1;jiggle=2;" edge="1" parent="WIyWlLk6GJQsqaUBKTNV-1" source="q6LR0bnagClyTPZN66Ip-14" target="q6LR0bnagClyTPZN66Ip-16">
          <mxGeometry relative="1" as="geometry" />
        </mxCell>
        <mxCell id="q6LR0bnagClyTPZN66Ip-21" value="" style="edgeStyle=orthogonalEdgeStyle;rounded=0;orthogonalLoop=1;jettySize=auto;html=1;sketch=1;curveFitting=1;jiggle=2;" edge="1" parent="WIyWlLk6GJQsqaUBKTNV-1" source="q6LR0bnagClyTPZN66Ip-14" target="q6LR0bnagClyTPZN66Ip-20">
          <mxGeometry relative="1" as="geometry" />
        </mxCell>
        <mxCell id="q6LR0bnagClyTPZN66Ip-14" value="浏览器调用Socket库委托协议栈工作，选择传输协议" style="whiteSpace=wrap;html=1;fontFamily=Comic Sans MS;fillColor=#ffe6cc;strokeColor=#d79b00;rounded=0;glass=0;strokeWidth=1;shadow=0;sketch=1;curveFitting=1;jiggle=2;" vertex="1" parent="WIyWlLk6GJQsqaUBKTNV-1">
          <mxGeometry x="470" y="222.5" width="120" height="60" as="geometry" />
        </mxCell>
        <mxCell id="q6LR0bnagClyTPZN66Ip-51" style="edgeStyle=orthogonalEdgeStyle;rounded=0;orthogonalLoop=1;jettySize=auto;html=1;exitX=1;exitY=0.5;exitDx=0;exitDy=0;entryX=0.5;entryY=1;entryDx=0;entryDy=0;sketch=1;curveFitting=1;jiggle=2;" edge="1" parent="WIyWlLk6GJQsqaUBKTNV-1" source="q6LR0bnagClyTPZN66Ip-16" target="q6LR0bnagClyTPZN66Ip-22">
          <mxGeometry relative="1" as="geometry" />
        </mxCell>
        <mxCell id="q6LR0bnagClyTPZN66Ip-16" value="使用UDP协议" style="whiteSpace=wrap;html=1;fontFamily=Comic Sans MS;fillColor=#ffe6cc;strokeColor=#d79b00;rounded=0;glass=0;strokeWidth=1;shadow=0;sketch=1;curveFitting=1;jiggle=2;" vertex="1" parent="WIyWlLk6GJQsqaUBKTNV-1">
          <mxGeometry x="470" y="140" width="120" height="30" as="geometry" />
        </mxCell>
        <mxCell id="q6LR0bnagClyTPZN66Ip-23" value="" style="edgeStyle=orthogonalEdgeStyle;rounded=0;orthogonalLoop=1;jettySize=auto;html=1;sketch=1;curveFitting=1;jiggle=2;" edge="1" parent="WIyWlLk6GJQsqaUBKTNV-1" source="q6LR0bnagClyTPZN66Ip-20" target="q6LR0bnagClyTPZN66Ip-22">
          <mxGeometry relative="1" as="geometry" />
        </mxCell>
        <mxCell id="q6LR0bnagClyTPZN66Ip-20" value="使用TCP协议，通过三次握手建立连接，获得TCP数据包" style="whiteSpace=wrap;html=1;fontFamily=Comic Sans MS;fillColor=#ffe6cc;strokeColor=#d79b00;rounded=0;glass=0;strokeWidth=1;shadow=0;sketch=1;curveFitting=1;jiggle=2;" vertex="1" parent="WIyWlLk6GJQsqaUBKTNV-1">
          <mxGeometry x="470" y="320" width="120" height="50" as="geometry" />
        </mxCell>
        <mxCell id="q6LR0bnagClyTPZN66Ip-25" value="" style="edgeStyle=orthogonalEdgeStyle;rounded=0;orthogonalLoop=1;jettySize=auto;html=1;sketch=1;curveFitting=1;jiggle=2;" edge="1" parent="WIyWlLk6GJQsqaUBKTNV-1" source="q6LR0bnagClyTPZN66Ip-22" target="q6LR0bnagClyTPZN66Ip-24">
          <mxGeometry relative="1" as="geometry" />
        </mxCell>
        <mxCell id="q6LR0bnagClyTPZN66Ip-22" value="在TCP数据包基础上封装源端目的端IP地址等信息获得网络包" style="whiteSpace=wrap;html=1;fontFamily=Comic Sans MS;fillColor=#ffe6cc;strokeColor=#d79b00;rounded=0;glass=0;strokeWidth=1;shadow=0;sketch=1;curveFitting=1;jiggle=2;" vertex="1" parent="WIyWlLk6GJQsqaUBKTNV-1">
          <mxGeometry x="294" y="315" width="120" height="60" as="geometry" />
        </mxCell>
        <mxCell id="q6LR0bnagClyTPZN66Ip-27" value="" style="edgeStyle=orthogonalEdgeStyle;rounded=0;orthogonalLoop=1;jettySize=auto;html=1;sketch=1;curveFitting=1;jiggle=2;" edge="1" parent="WIyWlLk6GJQsqaUBKTNV-1" source="q6LR0bnagClyTPZN66Ip-24" target="q6LR0bnagClyTPZN66Ip-26">
          <mxGeometry relative="1" as="geometry" />
        </mxCell>
        <mxCell id="q6LR0bnagClyTPZN66Ip-24" value="在网络包的IP地址头部前封装MAC地址头部" style="whiteSpace=wrap;html=1;fontFamily=Comic Sans MS;fillColor=#ffe6cc;strokeColor=#d79b00;rounded=0;glass=0;strokeWidth=1;shadow=0;sketch=1;curveFitting=1;jiggle=2;" vertex="1" parent="WIyWlLk6GJQsqaUBKTNV-1">
          <mxGeometry x="120" y="315" width="120" height="60" as="geometry" />
        </mxCell>
        <mxCell id="q6LR0bnagClyTPZN66Ip-29" value="" style="edgeStyle=orthogonalEdgeStyle;rounded=0;orthogonalLoop=1;jettySize=auto;html=1;sketch=1;curveFitting=1;jiggle=2;" edge="1" parent="WIyWlLk6GJQsqaUBKTNV-1" source="q6LR0bnagClyTPZN66Ip-26" target="q6LR0bnagClyTPZN66Ip-28">
          <mxGeometry relative="1" as="geometry" />
        </mxCell>
        <mxCell id="q6LR0bnagClyTPZN66Ip-26" value="网卡将存储在内存中的二进制网络包转为电信号，通过网线传输" style="rounded=0;whiteSpace=wrap;html=1;fontFamily=Comic Sans MS;fillColor=#ffe6cc;strokeColor=#d79b00;glass=0;strokeWidth=1;shadow=0;sketch=1;curveFitting=1;jiggle=2;" vertex="1" parent="WIyWlLk6GJQsqaUBKTNV-1">
          <mxGeometry x="115" y="430" width="130" height="60" as="geometry" />
        </mxCell>
        <mxCell id="q6LR0bnagClyTPZN66Ip-31" value="" style="edgeStyle=orthogonalEdgeStyle;rounded=0;orthogonalLoop=1;jettySize=auto;html=1;sketch=1;curveFitting=1;jiggle=2;" edge="1" parent="WIyWlLk6GJQsqaUBKTNV-1" source="q6LR0bnagClyTPZN66Ip-28" target="q6LR0bnagClyTPZN66Ip-30">
          <mxGeometry relative="1" as="geometry" />
        </mxCell>
        <mxCell id="q6LR0bnagClyTPZN66Ip-28" value="网线连着的交换机根据MAC头查找到目的端设备的端口" style="whiteSpace=wrap;html=1;fontFamily=Comic Sans MS;fillColor=#ffe6cc;strokeColor=#d79b00;rounded=0;glass=0;strokeWidth=1;shadow=0;sketch=1;curveFitting=1;jiggle=2;" vertex="1" parent="WIyWlLk6GJQsqaUBKTNV-1">
          <mxGeometry x="310" y="430" width="120" height="60" as="geometry" />
        </mxCell>
        <mxCell id="q6LR0bnagClyTPZN66Ip-33" value="" style="edgeStyle=orthogonalEdgeStyle;rounded=0;orthogonalLoop=1;jettySize=auto;html=1;sketch=1;curveFitting=1;jiggle=2;" edge="1" parent="WIyWlLk6GJQsqaUBKTNV-1" source="q6LR0bnagClyTPZN66Ip-30" target="q6LR0bnagClyTPZN66Ip-32">
          <mxGeometry relative="1" as="geometry" />
        </mxCell>
        <mxCell id="q6LR0bnagClyTPZN66Ip-34" value="否" style="edgeLabel;html=1;align=center;verticalAlign=middle;resizable=0;points=[];" vertex="1" connectable="0" parent="q6LR0bnagClyTPZN66Ip-33">
          <mxGeometry x="0.0678" relative="1" as="geometry">
            <mxPoint as="offset" />
          </mxGeometry>
        </mxCell>
        <mxCell id="q6LR0bnagClyTPZN66Ip-36" value="" style="edgeStyle=orthogonalEdgeStyle;rounded=0;orthogonalLoop=1;jettySize=auto;html=1;sketch=1;curveFitting=1;jiggle=2;" edge="1" parent="WIyWlLk6GJQsqaUBKTNV-1" source="q6LR0bnagClyTPZN66Ip-30" target="q6LR0bnagClyTPZN66Ip-35">
          <mxGeometry relative="1" as="geometry" />
        </mxCell>
        <mxCell id="q6LR0bnagClyTPZN66Ip-37" value="是" style="edgeLabel;html=1;align=center;verticalAlign=middle;resizable=0;points=[];" vertex="1" connectable="0" parent="q6LR0bnagClyTPZN66Ip-36">
          <mxGeometry x="-0.2155" y="2" relative="1" as="geometry">
            <mxPoint as="offset" />
          </mxGeometry>
        </mxCell>
        <mxCell id="q6LR0bnagClyTPZN66Ip-30" value="是否查找成功？" style="rhombus;whiteSpace=wrap;html=1;fontFamily=Comic Sans MS;fillColor=#ffe6cc;strokeColor=#d79b00;rounded=0;glass=0;strokeWidth=1;shadow=0;sketch=1;curveFitting=1;jiggle=2;" vertex="1" parent="WIyWlLk6GJQsqaUBKTNV-1">
          <mxGeometry x="490" y="430" width="80" height="60" as="geometry" />
        </mxCell>
        <mxCell id="q6LR0bnagClyTPZN66Ip-40" style="edgeStyle=orthogonalEdgeStyle;rounded=0;orthogonalLoop=1;jettySize=auto;html=1;entryX=0.5;entryY=1;entryDx=0;entryDy=0;sketch=1;curveFitting=1;jiggle=2;" edge="1" parent="WIyWlLk6GJQsqaUBKTNV-1" source="q6LR0bnagClyTPZN66Ip-32" target="q6LR0bnagClyTPZN66Ip-38">
          <mxGeometry relative="1" as="geometry">
            <Array as="points">
              <mxPoint x="690" y="600" />
              <mxPoint x="370" y="600" />
            </Array>
          </mxGeometry>
        </mxCell>
        <mxCell id="q6LR0bnagClyTPZN66Ip-32" value="向交换机所有端口广播网络包" style="whiteSpace=wrap;html=1;fontFamily=Comic Sans MS;fillColor=#ffe6cc;strokeColor=#d79b00;rounded=0;glass=0;strokeWidth=1;shadow=0;sketch=1;curveFitting=1;jiggle=2;" vertex="1" parent="WIyWlLk6GJQsqaUBKTNV-1">
          <mxGeometry x="630" y="440" width="120" height="40" as="geometry" />
        </mxCell>
        <mxCell id="q6LR0bnagClyTPZN66Ip-39" value="" style="edgeStyle=orthogonalEdgeStyle;rounded=0;orthogonalLoop=1;jettySize=auto;html=1;sketch=1;curveFitting=1;jiggle=2;" edge="1" parent="WIyWlLk6GJQsqaUBKTNV-1" source="q6LR0bnagClyTPZN66Ip-35" target="q6LR0bnagClyTPZN66Ip-38">
          <mxGeometry relative="1" as="geometry" />
        </mxCell>
        <mxCell id="q6LR0bnagClyTPZN66Ip-35" value="向目的设备的端口传输网络包" style="whiteSpace=wrap;html=1;fontFamily=Comic Sans MS;fillColor=#ffe6cc;strokeColor=#d79b00;rounded=0;glass=0;strokeWidth=1;shadow=0;sketch=1;curveFitting=1;jiggle=2;" vertex="1" parent="WIyWlLk6GJQsqaUBKTNV-1">
          <mxGeometry x="470" y="530" width="120" height="40" as="geometry" />
        </mxCell>
        <mxCell id="q6LR0bnagClyTPZN66Ip-42" value="" style="edgeStyle=orthogonalEdgeStyle;rounded=0;orthogonalLoop=1;jettySize=auto;html=1;sketch=1;curveFitting=1;jiggle=2;" edge="1" parent="WIyWlLk6GJQsqaUBKTNV-1" source="q6LR0bnagClyTPZN66Ip-38" target="q6LR0bnagClyTPZN66Ip-41">
          <mxGeometry relative="1" as="geometry" />
        </mxCell>
        <mxCell id="q6LR0bnagClyTPZN66Ip-38" value="路由器接收到网络包并转发到服务器" style="whiteSpace=wrap;html=1;fontFamily=Comic Sans MS;fillColor=#ffe6cc;strokeColor=#d79b00;rounded=0;glass=0;strokeWidth=1;shadow=0;sketch=1;curveFitting=1;jiggle=2;" vertex="1" parent="WIyWlLk6GJQsqaUBKTNV-1">
          <mxGeometry x="310" y="520" width="120" height="60" as="geometry" />
        </mxCell>
        <mxCell id="q6LR0bnagClyTPZN66Ip-44" value="" style="edgeStyle=orthogonalEdgeStyle;rounded=0;orthogonalLoop=1;jettySize=auto;html=1;sketch=1;curveFitting=1;jiggle=2;" edge="1" parent="WIyWlLk6GJQsqaUBKTNV-1" source="q6LR0bnagClyTPZN66Ip-41" target="q6LR0bnagClyTPZN66Ip-43">
          <mxGeometry relative="1" as="geometry" />
        </mxCell>
        <mxCell id="q6LR0bnagClyTPZN66Ip-41" value="服务器校验MAC地址、IP地址、TCP包的序列号（可选）" style="whiteSpace=wrap;html=1;fontFamily=Comic Sans MS;fillColor=#ffe6cc;strokeColor=#d79b00;rounded=0;glass=0;strokeWidth=1;shadow=0;sketch=1;curveFitting=1;jiggle=2;" vertex="1" parent="WIyWlLk6GJQsqaUBKTNV-1">
          <mxGeometry x="120" y="520" width="120" height="60" as="geometry" />
        </mxCell>
        <mxCell id="q6LR0bnagClyTPZN66Ip-46" value="" style="edgeStyle=orthogonalEdgeStyle;rounded=0;orthogonalLoop=1;jettySize=auto;html=1;sketch=1;curveFitting=1;jiggle=2;" edge="1" parent="WIyWlLk6GJQsqaUBKTNV-1" source="q6LR0bnagClyTPZN66Ip-43" target="q6LR0bnagClyTPZN66Ip-45">
          <mxGeometry relative="1" as="geometry" />
        </mxCell>
        <mxCell id="q6LR0bnagClyTPZN66Ip-43" value="根据端口找到监听进程并传输数据" style="whiteSpace=wrap;html=1;fontFamily=Comic Sans MS;fillColor=#ffe6cc;strokeColor=#d79b00;rounded=0;glass=0;strokeWidth=1;shadow=0;sketch=1;curveFitting=1;jiggle=2;" vertex="1" parent="WIyWlLk6GJQsqaUBKTNV-1">
          <mxGeometry x="120" y="630" width="120" height="60" as="geometry" />
        </mxCell>
        <mxCell id="q6LR0bnagClyTPZN66Ip-48" value="" style="edgeStyle=orthogonalEdgeStyle;rounded=0;orthogonalLoop=1;jettySize=auto;html=1;sketch=1;curveFitting=1;jiggle=2;" edge="1" parent="WIyWlLk6GJQsqaUBKTNV-1" source="q6LR0bnagClyTPZN66Ip-45" target="q6LR0bnagClyTPZN66Ip-47">
          <mxGeometry relative="1" as="geometry" />
        </mxCell>
        <mxCell id="q6LR0bnagClyTPZN66Ip-45" value="进程处理数据并生成响应传输回客户端" style="whiteSpace=wrap;html=1;fontFamily=Comic Sans MS;fillColor=#ffe6cc;strokeColor=#d79b00;rounded=0;glass=0;strokeWidth=1;shadow=0;sketch=1;curveFitting=1;jiggle=2;" vertex="1" parent="WIyWlLk6GJQsqaUBKTNV-1">
          <mxGeometry x="310" y="630" width="120" height="60" as="geometry" />
        </mxCell>
        <mxCell id="q6LR0bnagClyTPZN66Ip-50" value="" style="edgeStyle=orthogonalEdgeStyle;rounded=0;orthogonalLoop=1;jettySize=auto;html=1;sketch=1;curveFitting=1;jiggle=2;entryX=0.5;entryY=1;entryDx=0;entryDy=0;" edge="1" parent="WIyWlLk6GJQsqaUBKTNV-1" source="q6LR0bnagClyTPZN66Ip-47" target="q6LR0bnagClyTPZN66Ip-8">
          <mxGeometry relative="1" as="geometry">
            <mxPoint x="709.9999999999998" y="660" as="targetPoint" />
            <Array as="points">
              <mxPoint x="570" y="710" />
              <mxPoint x="70" y="710" />
            </Array>
          </mxGeometry>
        </mxCell>
        <mxCell id="q6LR0bnagClyTPZN66Ip-47" value="浏览器接收响应并渲染页面" style="whiteSpace=wrap;html=1;fontFamily=Comic Sans MS;fillColor=#ffe6cc;strokeColor=#d79b00;rounded=0;glass=0;strokeWidth=1;shadow=0;sketch=1;curveFitting=1;jiggle=2;" vertex="1" parent="WIyWlLk6GJQsqaUBKTNV-1">
          <mxGeometry x="510" y="630" width="120" height="60" as="geometry" />
        </mxCell>
      </root>
    </mxGraphModel>
  </diagram>
</mxfile>
